# xmcd
#
# Track frame offsets: 
#        182
#        17062
#        32122
#        48195
#        64165
#        81267
#        94840
#        110782
#        124987
#        140230
#        161390
#
# Disc length: 2383 seconds
#
# Revision: 9
# Processed by: cddbd v1.5PL3 Copyright (c) Steve Scherf et al.
# Submitted via: ExactAudioCopy v0.90b4
#
DISCID=99094d0b
DTITLE=Lee Ann Womack - Lee Ann Womack
DYEAR=1900
DGENRE=Country
TTITLE0=Never Again, Again
TTITLE1=A Man With 18 Wheels
TTITLE2=You've Got To Talk To Me
TTITLE3=The Fool
TTITLE4=Am I The Only Thing You've Done Wrong
TTITLE5=Buckaroo
TTITLE6=Make Memories With Me (Duet With Mark Chesnutt)
TTITLE7=Trouble's Here
TTITLE8=Do You Feel For Me
TTITLE9=Montgomery To Memphis
TTITLE10=Get Up In Jesus' Name
EXTD=
EXTT0=
EXTT1=
EXTT2=
EXTT3=
EXTT4=
EXTT5=
EXTT6=
EXTT7=
EXTT8=
EXTT9=
EXTT10=
PLAYORDER=
